<svg width="34" height="32" viewBox="0 0 34 32" fill="none" xmlns="http://www.w3.org/2000/svg">
<g clip-path="url(#clip0_105449_592)">
<mask id="mask0_105449_592" style="mask-type:luminance" maskUnits="userSpaceOnUse" x="0" y="0" width="34" height="32">
<path d="M34 0H0V32H34V0Z" fill="white"/>
</mask>
<g mask="url(#mask0_105449_592)">
<path d="M17 2.88125C21.5422 2.88125 22.0801 2.9 23.8664 2.975C25.5266 3.04375 26.423 3.30625 27.0207 3.525C27.8109 3.8125 28.3821 4.1625 28.973 4.71875C29.5707 5.28125 29.9359 5.8125 30.2414 6.55625C30.4738 7.11873 30.7527 7.96873 30.8258 9.525C30.9055 11.2125 30.9254 11.7187 30.9254 15.9875C30.9254 20.2625 30.9055 20.7687 30.8258 22.45C30.7527 24.0125 30.4738 24.8563 30.2414 25.4187C29.9359 26.1625 29.5641 26.7 28.973 27.2563C28.3754 27.8187 27.8109 28.1625 27.0207 28.45C26.423 28.6687 25.5199 28.9313 23.8664 29C22.0734 29.075 21.5355 29.0937 17 29.0937C12.4578 29.0937 11.9199 29.075 10.1336 29C8.47344 28.9313 7.57697 28.6687 6.9793 28.45C6.18906 28.1625 5.61797 27.8125 5.02696 27.2563C4.4293 26.6937 4.06406 26.1625 3.75859 25.4187C3.52618 24.8563 3.24727 24.0063 3.17422 22.45C3.09453 20.7625 3.07461 20.2563 3.07461 15.9875C3.07461 11.7125 3.09453 11.2063 3.17422 9.525C3.24727 7.96247 3.52618 7.11873 3.75859 6.55625C4.06406 5.8125 4.43594 5.275 5.02696 4.71875C5.62461 4.15625 6.18906 3.8125 6.9793 3.525C7.57697 3.30625 8.4801 3.04375 10.1336 2.975C11.9199 2.9 12.4578 2.88125 17 2.88125ZM17 0C12.3848 0 11.8071 0.01875 9.99416 0.09375C8.18791 0.16875 6.94609 0.44375 5.87031 0.8375C4.74804 1.25 3.79844 1.79375 2.85547 2.6875C1.90586 3.575 1.32813 4.46875 0.889844 5.51875C0.471484 6.5375 0.179297 7.7 0.0996094 9.4C0.0199219 11.1125 0 11.6563 0 16C0 20.3437 0.0199219 20.8875 0.0996094 22.5937C0.179297 24.2937 0.471484 25.4625 0.889844 26.475C1.32813 27.5313 1.90586 28.425 2.85547 29.3125C3.79844 30.2 4.74805 30.75 5.86368 31.1563C6.94609 31.55 8.18125 31.825 9.9875 31.9C11.8004 31.975 12.3781 31.9937 16.9933 31.9937C21.6086 31.9937 22.1863 31.975 23.9993 31.9C25.8055 31.825 27.0473 31.55 28.123 31.1563C29.2387 30.75 30.1883 30.2 31.1313 29.3125C32.0742 28.425 32.6586 27.5313 33.0902 26.4813C33.5086 25.4625 33.8008 24.3 33.8805 22.6C33.9602 20.8937 33.9801 20.35 33.9801 16.0063C33.9801 11.6625 33.9602 11.1187 33.8805 9.41253C33.8008 7.71253 33.5086 6.54375 33.0902 5.53125C32.6719 4.46875 32.0942 3.575 31.1446 2.6875C30.2016 1.8 29.252 1.25 28.1363 0.843747C27.0539 0.45 25.8188 0.175 24.0125 0.1C22.193 0.01875 21.6152 0 17 0Z" fill="#000100"/>
<path d="M17 7.78125C12.1789 7.78125 8.26758 11.4625 8.26758 16C8.26758 20.5375 12.1789 24.2187 17 24.2187C21.821 24.2187 25.7324 20.5375 25.7324 16C25.7324 11.4625 21.821 7.78125 17 7.78125ZM17 21.3313C13.8723 21.3313 11.3355 18.9437 11.3355 16C11.3355 13.0563 13.8723 10.6687 17 10.6687C20.1277 10.6687 22.6645 13.0563 22.6645 16C22.6645 18.9437 20.1277 21.3313 17 21.3313Z" fill="#000100"/>
<path d="M28.1164 7.45586C28.1164 8.5184 27.2 9.3746 26.0777 9.3746C24.9488 9.3746 24.0391 8.51213 24.0391 7.45586C24.0391 6.39336 24.9555 5.53711 26.0777 5.53711C27.2 5.53711 28.1164 6.39962 28.1164 7.45586Z" fill="#000100"/>
</g>
</g>
<defs>
<clipPath id="clip0_105449_592">
<rect width="34" height="32" fill="white"/>
</clipPath>
</defs>
</svg>
